opened stat file!
[aac @ 0x7f78cd304080] Estimating duration from bitrate, this may be inaccurate
Input #0, aac, from '/Users/abuynits/CLionProjects/ffmpegTest5/Recordings/inputRecordings/recording3.aac':
  Duration: 00:00:18.94, bitrate: 76 kb/s
  Stream #0:0: Audio: aac (LC), 48000 Hz, mono, fltp, 76 kb/s
Output #0, wav, to '/Users/abuynits/CLionProjects/ffmpegTest5/Recordings/tempRecording.wav':
  Stream #0:0: Audio: aac (LC), 48000 Hz, mono, fltp, 76 kb/s
	found audio stream
	found decoder
	allocated context
	copied codec param
	opened codec!
	created codec
initialized AudioDecoder
	created srcFilter!
	created volume Filter!
	Created format Filter!
	Created lp Filter!
	Created hp Filter!
	Created arnndn Filter!
	Created silenceremove Filter!
	Created sink Filter!
configured graph!
initialized AudioFilter

Reached end of file
Play the data output File w/
ffplay -f f32le -ac 1 -ar 48000 /Users/abuynits/CLionProjects/ffmpegTest5/Recordings/tempRecording.wav
finished processing first loop
[astats @ 0x7f78cd404900] Overall
[astats @ 0x7f78cd404900] DC offset: 0.001916
[astats @ 0x7f78cd404900] Min level: 0.000334
[astats @ 0x7f78cd404900] Max level: 0.003873
[astats @ 0x7f78cd404900] Min difference: 0.000001
[astats @ 0x7f78cd404900] Max difference: 0.000502
[astats @ 0x7f78cd404900] Mean difference: 0.000193
[astats @ 0x7f78cd404900] RMS difference: 0.000230
[astats @ 0x7f78cd404900] Peak level dB: -48.239497
[astats @ 0x7f78cd404900] RMS level dB: -53.482727
[astats @ 0x7f78cd404900] RMS peak dB: -53.482727
[astats @ 0x7f78cd404900] RMS trough dB: -53.482727
[astats @ 0x7f78cd404900] Flat factor: 0.000000
[astats @ 0x7f78cd404900] Peak count: 2.000000
[astats @ 0x7f78cd404900] Noise floor dB: nan
[astats @ 0x7f78cd404900] Noise floor count: 0.000000
[astats @ 0x7f78cd404900] Entropy: 0.322818
[astats @ 0x7f78cd404900] Bit depth: 23/32
[astats @ 0x7f78cd404900] Number of samples: 53
[astats @ 0x7f78cd404900] Number of NaNs: 0.000000
[astats @ 0x7f78cd404900] Number of Infs: 0.000000
[astats @ 0x7f78cd404900] Number of denormals: 0.000000
[astats @ 0x7f78cd004bc0] Overall
[astats @ 0x7f78cd004bc0] DC offset: 0.000729
[astats @ 0x7f78cd004bc0] Min level: -0.040698
[astats @ 0x7f78cd004bc0] Max level: 0.037564
[astats @ 0x7f78cd004bc0] Min difference: 0.000001
[astats @ 0x7f78cd004bc0] Max difference: 0.013270
[astats @ 0x7f78cd004bc0] Mean difference: 0.002709
[astats @ 0x7f78cd004bc0] RMS difference: 0.003689
[astats @ 0x7f78cd004bc0] Peak level dB: -27.808623
[astats @ 0x7f78cd004bc0] RMS level dB: -36.917684
[astats @ 0x7f78cd004bc0] RMS peak dB: -36.787280
[astats @ 0x7f78cd004bc0] RMS trough dB: -38.969503
[astats @ 0x7f78cd004bc0] Flat factor: 0.000000
[astats @ 0x7f78cd004bc0] Peak count: 2.000000
[astats @ 0x7f78cd004bc0] Noise floor dB: -28.495724
[astats @ 0x7f78cd004bc0] Noise floor count: 207.000000
[astats @ 0x7f78cd004bc0] Entropy: 0.586832
[astats @ 0x7f78cd004bc0] Bit depth: 32/32
[astats @ 0x7f78cd004bc0] Number of samples: 1024
[astats @ 0x7f78cd004bc0] Number of NaNs: 0.000000
[astats @ 0x7f78cd004bc0] Number of Infs: 0.000000
[astats @ 0x7f78cd004bc0] Number of denormals: 0.000000
[aac @ 0x7f78cc71e640] invalid band type
Input #0, wav, from '/Users/abuynits/CLionProjects/ffmpegTest5/Recordings/tempRecording.wav':
  Metadata:
    encoder         : Lavf59.16.100
  Duration: 00:00:00.00, bitrate: 1080839619 kb/s
  Stream #0:0: Audio: aac ([255][0][0][0] / 0x00FF), 48000 Hz, mono, fltp, 494 kb/s
Output #0, wav, to '/Users/abuynits/CLionProjects/ffmpegTest5/Recordings/outputRecordings/recordingOut2.wav':
  Stream #0:0: Audio: aac, 48000 Hz, mono, fltp, 494 kb/s
[wav @ 0x7f78cc70c400] Packet corrupt (stream = 0, dts = NOPTS).
finished muxing files
